<svg xmlns="http://www.w3.org/2000/svg" width="52.702" height="52.66" viewBox="0 0 52.702 52.66"><g transform="translate(-106.749 -230.58)"><g transform="translate(106.749 230.58)"><path d="M159.436,478.055H106.749v-21.61h52.687Zm-46.388-10.8c1.536,0,3.024,0,4.513,0a4.456,4.456,0,0,0,2.865-.96c.261-.207.4-.122.658.007a6.352,6.352,0,0,0,2.154.87c1.716.128,3.448.041,5.193.041v-3.046c-1.519,0-3.007.006-4.495,0a1.55,1.55,0,0,1-1.648-1.64c-.006-.473,0-.945,0-1.4H119.2c0,.538.015,1.035,0,1.531a1.533,1.533,0,0,1-1.515,1.509c-.634.02-1.268,0-1.9.005h-2.729Zm24.7-3.087v3.087c1.479,0,2.932-.01,4.384,0a4.6,4.6,0,0,0,3.014-.98c.244-.194.388-.152.612.022a4.431,4.431,0,0,0,2.765.953c1.44.006,2.88,0,4.319,0a1.894,1.894,0,0,0,.271-.036v-3.049c-1.533,0-3.024.007-4.514,0a1.545,1.545,0,0,1-1.616-1.619c-.007-.475,0-.949,0-1.431H143.9c0,.426,0,.818,0,1.21,0,1.265-.583,1.842-1.86,1.843Zm3.031,9.228v-3.054c-1.5,0-2.969,0-4.44,0a1.562,1.562,0,0,1-1.7-1.687c0-.456,0-.912,0-1.359h-3.087c0,.467,0,.895,0,1.322a2.4,2.4,0,0,1-.041.51,1.537,1.537,0,0,1-1.575,1.213c-1.5.008-3.006,0-4.524,0v3.087c1.469,0,2.906-.012,4.343,0a4.667,4.667,0,0,0,3.063-.989.378.378,0,0,1,.57.009,3.786,3.786,0,0,0,2.245.927C137.336,473.428,139.047,473.391,140.781,473.391Z" transform="translate(-106.749 -425.395)" fill="#fff"/><path d="M106.749,344.116q8.618,0,17.236-.008a1.069,1.069,0,0,1,.85.355q1.214,1.259,2.476,2.471a.988.988,0,0,0,.617.258q5.171.023,10.342,0a.987.987,0,0,0,.614-.265c.865-.832,1.7-1.7,2.562-2.531a.987.987,0,0,1,.613-.269q8.515-.021,17.031-.011c.1,0,.2.01.362.019-.147,2.918.387,5.856-.807,8.653a10.734,10.734,0,0,1-2.17,3.342,1.152,1.152,0,0,1-.739.32c-4.167.02-8.335.014-12.5.014q-16.336,0-32.672.009a1.168,1.168,0,0,1-.967-.436,10.828,10.828,0,0,1-2.752-5.918,2.561,2.561,0,0,0-.093-.344Zm40.271,6.2v3.023h3.025v-3.023Z" transform="translate(-106.749 -328.501)" fill="#fff"/><path d="M262.217,282.876H250.091c.39-.885,1.635-1.787,3.764-2.827a3.6,3.6,0,0,0-.877-.229q-6.148-.023-12.3,0a3.584,3.584,0,0,0-.848.214l.018.131c.216.085.433.166.647.256a7.568,7.568,0,0,1,4.484,4.979c.124.4.085.594-.412.591-2.606-.017-5.213,0-7.82-.02a.99.99,0,0,1-.613-.267c-.817-.783-1.625-1.576-2.4-2.4a1.17,1.17,0,0,0-1.032-.414c-.375.03-.753.006-1.245.006.153-.2.25-.342.366-.47a7.6,7.6,0,0,1,4.007-2.365.734.734,0,0,0,.584-.472,4.454,4.454,0,0,1,4.306-2.86q6.122-.038,12.244,0a4.433,4.433,0,0,1,4.269,2.835.788.788,0,0,0,.619.5A7.642,7.642,0,0,1,262.217,282.876Z" transform="translate(-214.319 -270.367)" fill="#fff"/><path d="M142.446,236.921V240h-3.063v3.084h-9.25v-6.126h3.055V230.58h3.073v6.341Z" transform="translate(-126.917 -230.58)" fill="#fff"/></g></g></svg>