<svg xmlns="http://www.w3.org/2000/svg" width="51.861" height="65.254" viewBox="0 0 51.861 65.254"><path d="M50.43,65.254H1.438A2.231,2.231,0,0,1,.046,63.737a2.021,2.021,0,0,1,.367-1.687,2.073,2.073,0,0,1,1.623-.731c.445-.008.923-.011,1.5-.011.392,0,.778,0,1.186,0h.007c.406,0,.826,0,1.25,0v-7.8H45.84v7.8h1.914l1.567,0h.289a3.742,3.742,0,0,1,.6.036,2.011,2.011,0,0,1,1.094.526,1.821,1.821,0,0,1,.528,1.035,2.081,2.081,0,0,1-.17,1.282,1.975,1.975,0,0,1-.915.88c-.074.037-.145.08-.214.122h0l-.1.059Zm-4.6-15.764H6.022V21.572h39.8V49.49Zm-25.3-13.52h0a6.521,6.521,0,0,0-.184,1.962,5.8,5.8,0,0,0,1.382,3.562,6.173,6.173,0,0,0,4.595,2.06c.056,0,.109,0,.161,0a6.013,6.013,0,0,0,4.131-2.545,5.516,5.516,0,0,0,.891-2.615,6.692,6.692,0,0,0-.439-2.929,2.814,2.814,0,0,1-.034.907,2.859,2.859,0,0,1-.364.924,4.831,4.831,0,0,0-1.528-4.374,4.782,4.782,0,0,1,.52,1.233,4.492,4.492,0,0,1-.017,2.48,4.419,4.419,0,0,1-1.392,2.125,4.6,4.6,0,0,1-2.318,1.094,1.631,1.631,0,0,1,.125-.606,4.043,4.043,0,0,1,1-1.148l.006-.006c.086-.082.168-.157.237-.22a2.155,2.155,0,0,0,.734-1.61l0-.113a3.246,3.246,0,0,0-.46-1.305,8.1,8.1,0,0,0-.821-1.3,3.022,3.022,0,0,1-.035,2.352,1.148,1.148,0,0,0-.118-.335,1.117,1.117,0,0,0-.167-.232,1.858,1.858,0,0,1,.025.446v.009a1.232,1.232,0,0,1-.484.9c-.089.067-.186.147-.288.236l0,0a2.742,2.742,0,0,0-.716.815,2.008,2.008,0,0,0-.208,1,2.223,2.223,0,0,0,.309,1.2h-.082c-.157,0-.317-.01-.474-.026a4.324,4.324,0,0,1-1.978-.715,4.53,4.53,0,0,1-1.6-1.914,5.083,5.083,0,0,1-.4-1.31Zm3.752-7.484a3.831,3.831,0,0,1,.1.987v.014a2.1,2.1,0,0,1-.211.84,2.27,2.27,0,0,1-.521.695,6.866,6.866,0,0,0-2.01,3.258,4.52,4.52,0,0,0,.523,3.55A4.37,4.37,0,0,0,24.471,39.6a4.465,4.465,0,0,1,.127-4.441,4.066,4.066,0,0,1,1.458-1.449,3.019,3.019,0,0,0,.837-.7,3.9,3.9,0,0,0,.86-2.179,3.685,3.685,0,0,0-.919-2.865,4.325,4.325,0,0,1-.111,1.305,4.1,4.1,0,0,0-1.839-3.6A3.738,3.738,0,0,1,24.9,29.2a2.195,2.195,0,0,0-.618-.716ZM45.9,17.547H5.994V9.474H2.447c-.217,0-.383,0-.537-.013A1.875,1.875,0,0,1,.01,7.5a1.938,1.938,0,0,1,.522-1.38,1.942,1.942,0,0,1,1.4-.558c.764-.014,1.6-.02,2.644-.02l1.559,0,1.607,0h.977c0-.343,0-.68,0-1.011V4.517c0-.715,0-1.391,0-2.075A2.545,2.545,0,0,1,9.278.569,2.47,2.47,0,0,1,11.127,0h9.579a2.26,2.26,0,0,1,1.66.559,2.305,2.305,0,0,1,.563,1.672c0,.741,0,1.474,0,2.25v0c0,.346,0,.7,0,1.068H49.41a6.3,6.3,0,0,1,.78.034,1.86,1.86,0,0,1,1.666,1.98,1.99,1.99,0,0,1-.487,1.293,1.736,1.736,0,0,1-1.224.577c-.618.034-1.231.039-1.75.039l-.606,0-.6,0H45.9v8.073Z" fill="#fff"/></svg>