<svg xmlns="http://www.w3.org/2000/svg" width="46.981" height="55.612" viewBox="0 0 46.981 55.612"><g transform="translate(482.176 -240.638)"><g transform="translate(-482.176 240.638)"><path d="M-279.224,240.638a2.069,2.069,0,0,1,1.2,2.2c-.055,1.1-.012,2.2-.012,3.332H-293.25c0-1.419-.042-2.824.018-4.225.029-.675.606-1.02,1.167-1.3Z" transform="translate(320.675 -240.638)" fill="#fff"/><path d="M-458.151,271.5a3.593,3.593,0,0,0,.5-.23,5.751,5.751,0,0,1,3.5-.846c4.7.05,9.395.025,14.092.01a.74.74,0,0,1,.778.488c1.191,2.417,2.372,4.839,3.633,7.22a5.316,5.316,0,0,1,.432,2.9h-.656c-6.711,0-13.421.025-20.132-.019a1.886,1.886,0,0,0-2.151,2.121c.036,8.182.018,16.363.018,24.545,0,1.525.557,2.075,2.1,2.075h20.763a6.44,6.44,0,0,1-4.041,6.987,6.961,6.961,0,0,1-2.381.452q-16.976.043-33.952.016a6.457,6.457,0,0,1-6.521-6.471q-.022-20.581,0-41.163a4.287,4.287,0,0,1,4.451-4.4q7.563-.013,15.126,0a4.3,4.3,0,0,1,4.438,4.422C-458.145,270.214-458.151,270.824-458.151,271.5Zm-17.492,7.525c0,1.809.011,3.617-.005,5.426a1.774,1.774,0,0,0,.884,1.786,1.783,1.783,0,0,0,1.934-.245q3.59-2.4,7.2-4.755a1.934,1.934,0,0,0,.951-1.765c-.017-1.971,0-3.943-.007-5.914a1.666,1.666,0,0,0-1.885-1.858q-3.588,0-7.176,0a1.675,1.675,0,0,0-1.9,1.9Q-475.646,276.31-475.643,279.023Z" transform="translate(482.176 -261.616)" fill="#fff"/><path d="M-293.791,397.113h19.608V419.27h-19.608Zm8.146,14.359c.255.24.4.372.539.507q1.86,1.79,3.717,3.583a1.647,1.647,0,0,0,1.581.509,1.531,1.531,0,0,0,1.206-1.129,1.609,1.609,0,0,0-.479-1.683q-2.487-2.392-4.972-4.786a3.7,3.7,0,0,0-.519-.349c1.739-1.6,3.358-3.073,4.967-4.56a1.657,1.657,0,0,0,.2-2.413,1.664,1.664,0,0,0-2.427.032c-1.111,1.013-2.215,2.035-3.323,3.051-.127.117-.265.222-.491.411,0-.883.006-1.653,0-2.422a1.629,1.629,0,0,0-1.613-1.745,1.644,1.644,0,0,0-1.645,1.725q-.014,6.081,0,12.162a1.651,1.651,0,0,0,1.622,1.75,1.633,1.633,0,0,0,1.638-1.775C-285.64,413.437-285.645,412.536-285.645,411.472Z" transform="translate(321.125 -374.409)" fill="#fff"/></g></g></svg>