<svg xmlns="http://www.w3.org/2000/svg" width="64.217" height="64.45" viewBox="0 0 64.217 64.45"><path d="M2.346,63.288H1.358A2.86,2.86,0,0,1,0,61.928v-13.1c.03-.131.06-.264.089-.392h0c.063-.281.128-.572.2-.855A9.542,9.542,0,0,1,1.16,45.4a8.75,8.75,0,0,1,1.4-1.874c.462-.473.941-.925,1.447-1.4.231-.218.469-.444.712-.677l-.66-.664,0,0h0c-.492-.5-.957-.963-1.431-1.427a2.393,2.393,0,0,1-.561-.788A1.428,1.428,0,0,1,2,37.64a2.931,2.931,0,0,1,.717-1.246C5.669,33.4,8.7,30.378,11.625,27.456h0l.681-.68a2.35,2.35,0,0,1,.371-.282h0c.064-.042.129-.086.194-.132L12.3,25.4l0,0c-.405-.676-.788-1.315-1.169-1.955a1.967,1.967,0,0,1,.368-2.859c2.6-2.607,5-5.008,7.333-7.339a2.257,2.257,0,0,1,1.557-.8,2.239,2.239,0,0,1,1.543.79l.585.582.005.005c.409.407.832.828,1.248,1.241a.249.249,0,0,0,.082.043c.025.01.057.023.1.042l.841-.852c.624-.633,1.269-1.287,1.912-1.928a2.251,2.251,0,0,1,1.553-.8,2.238,2.238,0,0,1,1.547.795l2.32,2.323,0,0c1.927,1.931,3.92,3.927,5.889,5.881a2.9,2.9,0,0,1,.865,1.657l.09.551c.489,2.993,1,6.088,1.526,9.126a2.488,2.488,0,0,1-.764,2.391c-3.085,3.065-6.208,6.193-9.229,9.218l-.006.006c-1.683,1.685-3.422,3.427-5.135,5.139a10.059,10.059,0,0,1-3.186,2.171,8.979,8.979,0,0,1-7.047.008,10.053,10.053,0,0,1-3.175-2.15c-.893-.886-1.8-1.792-2.67-2.668l0,0-.007-.007c-.481-.483-.979-.982-1.469-1.472-.1-.1-.212-.2-.339-.322l0,0-.218-.2c-.272.295-.549.585-.818.866-.632.661-1.229,1.286-1.773,1.976a4.958,4.958,0,0,0-.948,3.2c0,1.178,0,2.372,0,3.528,0,2.367-.01,4.815.023,7.223a3.155,3.155,0,0,1-.282,1.49A2.2,2.2,0,0,1,2.346,63.288ZM20.269,38.178l-6.8,6.8.317.311c.239.234.485.477.735.723a5.835,5.835,0,0,0,4.123,1.824,5.781,5.781,0,0,0,4.1-1.82c1.608-1.6,3.231-3.229,4.8-4.8l.08-.08,1.4-1.405c.083-.083.162-.172.255-.275l.171-.189L26.75,37.918l-2.777-1.387c0,.429,0,.848,0,1.253v0c0,.926,0,1.8-.006,2.68a1.994,1.994,0,0,1-.537,1.373,1.813,1.813,0,0,1-2.58.011,2,2,0,0,1-.577-1.321c-.014-.284-.011-.573-.008-.853,0-.125,0-.254,0-.382,0-.25,0-.5,0-.749v0Q20.269,38.36,20.269,38.178ZM23.6,26.05h0a4.427,4.427,0,0,0-.126,1.335,3.938,3.938,0,0,0,.944,2.424,4.222,4.222,0,0,0,3.137,1.4l.11,0a4.108,4.108,0,0,0,2.82-1.732,3.744,3.744,0,0,0,.608-1.779,4.533,4.533,0,0,0-.3-1.993,1.907,1.907,0,0,1-.023.617,1.941,1.941,0,0,1-.249.629,3.281,3.281,0,0,0-1.043-2.977,3.248,3.248,0,0,1,.355.839,3.047,3.047,0,0,1-.012,1.687,3.006,3.006,0,0,1-.95,1.446,3.143,3.143,0,0,1-1.583.745,1.112,1.112,0,0,1,.085-.412,2.758,2.758,0,0,1,.683-.781l0,0c.059-.056.115-.107.162-.15a1.464,1.464,0,0,0,.5-1.1v-.013c0-.021,0-.042,0-.064a2.2,2.2,0,0,0-.314-.888,5.523,5.523,0,0,0-.561-.885,2.051,2.051,0,0,1-.024,1.6.782.782,0,0,0-.081-.228.76.76,0,0,0-.114-.158,1.262,1.262,0,0,1,.017.3v.007a.837.837,0,0,1-.33.613c-.06.046-.126.1-.2.161h0a1.872,1.872,0,0,0-.489.555,1.364,1.364,0,0,0-.142.678,1.513,1.513,0,0,0,.211.815h-.056c-.108,0-.217-.007-.324-.018a2.959,2.959,0,0,1-1.351-.487,3.085,3.085,0,0,1-1.092-1.3,3.445,3.445,0,0,1-.271-.891Zm2.561-5.093a2.6,2.6,0,0,1,.065.672v.01a1.5,1.5,0,0,1-.5,1.044A4.667,4.667,0,0,0,24.354,24.9a3.064,3.064,0,0,0,.357,2.415,2.982,2.982,0,0,0,1.58,1.2,3.031,3.031,0,0,1,.087-3.022,2.772,2.772,0,0,1,1-.986,2.055,2.055,0,0,0,.571-.477,2.653,2.653,0,0,0,.587-1.483A2.5,2.5,0,0,0,27.9,20.6a2.936,2.936,0,0,1-.076.888,2.787,2.787,0,0,0-1.255-2.448,2.537,2.537,0,0,1,.011,2.4,1.494,1.494,0,0,0-.422-.488Zm30.252,16.25a6.883,6.883,0,0,1-1.719-.229,6.728,6.728,0,0,1-1.534-.619A6.9,6.9,0,0,1,50.811,34.2a6.752,6.752,0,0,1-1.1-2.88,6.372,6.372,0,0,1,.384-3.169,44.407,44.407,0,0,1,4.123-7.643l.075-.117,0-.008a11.87,11.87,0,0,1,.683-1,1.939,1.939,0,0,1,.685-.551,1.878,1.878,0,0,1,.81-.187,1.656,1.656,0,0,1,1.385.724c.808,1.176,1.856,2.738,2.8,4.39a30.373,30.373,0,0,1,2.218,4.717,5.8,5.8,0,0,1,.323,1.479,6.248,6.248,0,0,1-.057,1.508,6.9,6.9,0,0,1-2.166,3.987,6.725,6.725,0,0,1-1.288.919A6.82,6.82,0,0,1,56.414,37.207ZM39.838,17.178h0l-.87-.871-.017-.017L33.7,11.032c-.089-.09-.175-.183-.258-.273l-.108-.117c.006-.024.01-.046.013-.065a.139.139,0,0,1,.025-.075c.707-.683,1.4-1.4,2.075-2.1a37.064,37.064,0,0,1,5.059-4.622,20.983,20.983,0,0,1,2.679-1.617A19.911,19.911,0,0,1,46.016,1,20.232,20.232,0,0,1,48.991.288,21.941,21.941,0,0,1,52.108.013C52.606,0,53.138,0,53.735,0s1.2,0,1.7.009a1.99,1.99,0,0,1,1.43.543,1.993,1.993,0,0,1,.542,1.434c.013,1.965.012,3.7,0,5.311a1.98,1.98,0,0,1-.539,1.428,2.089,2.089,0,0,1-1.433.554c-.483.017-.976.026-1.453.035a32.974,32.974,0,0,0-3.772.213,10.049,10.049,0,0,0-5.758,2.991c-1.065,1.052-2.1,2.1-3.186,3.207l0,0-.007.007c-.464.471-.943.959-1.423,1.444Z" transform="translate(0.5 0.5)" fill="#fff" stroke="rgba(0,0,0,0)" stroke-miterlimit="10" stroke-width="1"/></svg>