<svg xmlns="http://www.w3.org/2000/svg" width="55.568" height="60.431" viewBox="0 0 55.568 60.431"><path d="M33.091,59.431H0c0-.087.008-.177.011-.257.009-.182.018-.369.018-.553,0-13.988,0-28.2,0-41.947V12.08c0-.544,0-1.1,0-1.631v-.01c0-1.193-.006-2.426.006-3.64A7.427,7.427,0,0,1,.561,4.066,6.347,6.347,0,0,1,4.137.511,7.379,7.379,0,0,1,6.869.005C9.515,0,12.513,0,15.444,0,19.6,0,23.038.006,26.258.018a7.676,7.676,0,0,1,2.221.328A6.552,6.552,0,0,1,33.073,6.88c0,5.286,0,10.661,0,15.859v.021q0,3.115,0,6.23v.728H33.1l.383,0h.006l.365,0c.166,0,.3,0,.431.008.353.014.716.016,1.066.017a12.5,12.5,0,0,1,2.456.171,6.494,6.494,0,0,1,2.108.832,6.242,6.242,0,0,1,1.624,1.448,6.5,6.5,0,0,1,1.046,1.931,7.115,7.115,0,0,1,.375,2.279c.011,2.93.009,5.906.008,8.784,0,1.817,0,3.7,0,5.55a5.856,5.856,0,0,0,.086,1.1,3.265,3.265,0,0,0,3.214,2.637,3.228,3.228,0,0,0,.928-.137,3.331,3.331,0,0,0,2.376-3.447c0-5.773,0-11.578,0-17.192q0-2.865,0-5.731v-.575a9.048,9.048,0,0,1-3.351.684,8.291,8.291,0,0,1-7.5-4.926,7.907,7.907,0,0,1-.368-5.607,8.588,8.588,0,0,1,.745-1.782A7.768,7.768,0,0,1,40.2,14.26a8.393,8.393,0,0,1,1.429-1.214,10.536,10.536,0,0,1,1.758-.95L39.793,8.511,36.47,5.194l1.879-1.88,1.646-1.647c.026.035.053.075.081.117a2.062,2.062,0,0,0,.24.309c1.5,1.5,3.019,3.014,4.49,4.481l.018.018c1.957,1.951,3.98,3.969,5.967,5.957.469.469.921.97,1.359,1.454l.215.238a8.322,8.322,0,0,1,1.629,2.626,8.518,8.518,0,0,1,.54,3.035q0,2.226.005,4.452v0c.011,8.754.021,17.805-.015,26.707a8.354,8.354,0,0,1-1.258,4.575A8.613,8.613,0,0,1,49.615,58.7a9.007,9.007,0,0,1-1.6.523c-.249.064-.506.131-.755.206H45.282c-.033-.012-.066-.026-.1-.04a.958.958,0,0,0-.216-.072,8.014,8.014,0,0,1-4.134-1.953,8.647,8.647,0,0,1-1.276-1.4,7.88,7.88,0,0,1-.88-1.573,8.458,8.458,0,0,1-.509-1.735,10.407,10.407,0,0,1-.161-1.887c.009-3.6.007-7.256.005-10.794v-.019c0-1.471,0-2.992,0-4.5v-.747H33.075v.71q0,2.55,0,5.1c0,4.181,0,8.5,0,12.764,0,1.393,0,2.809.009,4.179v.008q0,.98.006,1.96ZM10.345,43.483h0a7.489,7.489,0,0,0-.214,2.264,6.672,6.672,0,0,0,1.6,4.109,7.172,7.172,0,0,0,5.326,2.377c.065,0,.126,0,.186,0a6.977,6.977,0,0,0,4.787-2.936,6.345,6.345,0,0,0,1.032-3.016,7.692,7.692,0,0,0-.509-3.379,3.236,3.236,0,0,1-.039,1.046,3.294,3.294,0,0,1-.422,1.066,5.558,5.558,0,0,0-1.771-5.047,5.5,5.5,0,0,1,.6,1.422,5.159,5.159,0,0,1-.02,2.861A5.1,5.1,0,0,1,19.292,46.7a5.341,5.341,0,0,1-2.687,1.263,1.875,1.875,0,0,1,.144-.7,4.667,4.667,0,0,1,1.159-1.323l.008-.008c.1-.1.2-.186.274-.253a2.482,2.482,0,0,0,.851-1.857l0-.051c0-.026,0-.053,0-.08a3.735,3.735,0,0,0-.533-1.506,9.338,9.338,0,0,0-.952-1.5,3.474,3.474,0,0,1-.041,2.714,1.334,1.334,0,0,0-.137-.386,1.3,1.3,0,0,0-.194-.268,2.135,2.135,0,0,1,.028.515l0,.011a1.42,1.42,0,0,1-.561,1.04c-.1.077-.215.169-.334.272l0,0a3.171,3.171,0,0,0-.83.94,2.305,2.305,0,0,0-.241,1.15,2.559,2.559,0,0,0,.358,1.382h-.1c-.183,0-.368-.012-.55-.03a5.025,5.025,0,0,1-2.293-.825A5.231,5.231,0,0,1,10.8,44.994a5.845,5.845,0,0,1-.459-1.511Zm4.348-8.634a4.4,4.4,0,0,1,.11,1.139V36a2.419,2.419,0,0,1-.244.969,2.619,2.619,0,0,1-.6.8,7.911,7.911,0,0,0-2.329,3.759,5.191,5.191,0,0,0,.606,4.1,5.061,5.061,0,0,0,2.682,2.039,5.132,5.132,0,0,1,.147-5.124,4.7,4.7,0,0,1,1.689-1.671,3.494,3.494,0,0,0,.97-.81,4.5,4.5,0,0,0,1-2.514,4.241,4.241,0,0,0-1.066-3.306,4.969,4.969,0,0,1-.129,1.506,4.724,4.724,0,0,0-2.131-4.15,4.295,4.295,0,0,1,.018,4.077,2.538,2.538,0,0,0-.717-.827ZM46.27,16.508a3.3,3.3,0,1,0,.008,6.6H46.3a3.3,3.3,0,0,0-.014-6.6ZM6.678,6.652V23.09H26.422V6.652Z" transform="translate(0.52 0.5)" fill="#fff" stroke="rgba(0,0,0,0)" stroke-miterlimit="10" stroke-width="1"/></svg>