<svg xmlns="http://www.w3.org/2000/svg" width="176.995" height="62.045" viewBox="0 0 176.995 62.045">
  <g id="logo" transform="translate(-102.343 -69.585)">
    <g id="Group_1" data-name="Group 1" transform="translate(102.343 94.138)">
      <path id="Path_1" data-name="Path 1" d="M215.339,121.482a2.98,2.98,0,0,1-.739,2.57,4.885,4.885,0,0,1-.957.96,5.163,5.163,0,0,1-3.348.833q-5.422,0-10.843.008a1.727,1.727,0,0,0-1.9,1.824c.021.716,0,1.434-.014,2.15-.008.386.15.52.545.519,4.277-.013,8.553-.039,12.83.007a3.951,3.951,0,0,1,3.416,1.867,4.512,4.512,0,0,1,.849,1.824,6.445,6.445,0,0,1-.005.932q-.007,1.953-.01,3.906a4.246,4.246,0,0,1-1.131,2.981,3.99,3.99,0,0,1-3.007,1.347c-5.847.035-11.7.011-17.542.024-.47,0-.554-.185-.571-.6a3.586,3.586,0,0,1,1.793-3.306.52.52,0,0,1,.192-.1,18.26,18.26,0,0,1,2.346-.288c3.482-.012,6.964.046,10.445.034a15.85,15.85,0,0,0,2.284-.295c.776-.118.872-.778.942-1.353a15.1,15.1,0,0,0,.017-2.035c-.007-.435-.27-.566-.677-.561-1.589.016-3.179.018-4.769.02-2.555,0-5.11-.018-7.664.009a4.845,4.845,0,0,1-3.511-1.3,3.919,3.919,0,0,1-1.4-2.764c-.008-1.812-.024-3.625.034-5.434a3.377,3.377,0,0,1,1.228-2.5,5.606,5.606,0,0,1,3.47-1.312c5.7.025,11.392.01,17.088.011C214.938,121.455,215.142,121.473,215.339,121.482Z" transform="translate(-150.014 -121.435)" fill="#fff"/>
      <path id="Path_2" data-name="Path 2" d="M149.844,141.051a6.235,6.235,0,0,0-.087.7c-.007.433.015.868.026,1.3.019.8.015.809-.8.816a28.79,28.79,0,0,1-3.685-.028,7.5,7.5,0,0,1-2.4-.885,4.451,4.451,0,0,1-1.928-2.538,2,2,0,0,1-.074-.727q.013-6.964.034-13.929c0-1.037.022-2.075.009-3.112-.006-.5.15-.715.694-.663a4.109,4.109,0,0,1,2.9,1.734,4.3,4.3,0,0,1,.825,2.877c-.034,3.567-.024,7.135-.014,10.7a2.066,2.066,0,0,0,.962,1.939,1.418,1.418,0,0,0,.618.207c.68.034,1.362.03,2.043.036.747.007.787-.024.791-.746q.033-5.577.056-11.154c.007-1.68.018-3.36,0-5.039,0-.455.171-.6.605-.557a3.975,3.975,0,0,1,2.943,1.789,5.278,5.278,0,0,1,.837,3.346c-.052,3.321-.089,6.643-.053,9.964.008.739-.147,1.615.6,2.186a.749.749,0,0,0,.379.189c1.073.015,2.147.009,3.286.009,0-.252,0-.455,0-.656,0-2.453,0-4.907.017-7.361q.016-2.829.064-5.659c.02-1.091.094-2.181.112-3.271.007-.426.17-.565.58-.532a4.1,4.1,0,0,1,3,1.824,3.579,3.579,0,0,1,.673,2.193q-.018,8.664-.018,17.326a5.466,5.466,0,0,1-.063.561,4.94,4.94,0,0,1-2.519-1.12,17.182,17.182,0,0,1-1.825-2.043v3.15h-1.564c-.795,0-1.59.014-2.385,0a5.425,5.425,0,0,1-4.265-2.28,2.128,2.128,0,0,1-.226-.553Z" transform="translate(-122.634 -121.718)" fill="#fff"/>
      <path id="Path_3" data-name="Path 3" d="M117.968,143.56c-.219.013-.385.031-.551.03-3.237,0-6.477.081-9.708-.051a5.594,5.594,0,0,1-4.326-2.041,3.472,3.472,0,0,1-.785-1.857c-.09-2.96-.077-5.924-.05-8.886a2.749,2.749,0,0,1,1.617-2.232,4.42,4.42,0,0,1,2.48-.521q3.18.007,6.36.009c.78,0,.911-.183.687-.923-.027-.09-.066-.177-.088-.268-.194-.826-.4-1-1.275-1.012-1.306-.015-2.613.013-3.918-.027a19.336,19.336,0,0,1-3.08-.244,2.36,2.36,0,0,1-1.646-1c-.279-.451-.68-.832-.923-1.3a4.455,4.455,0,0,1-.41-1.356c-.06-.374.248-.441.569-.439,1.117.007,2.234,0,3.35,0,2.461,0,4.923-.054,7.381.016a4.333,4.333,0,0,1,4.011,2.582,3.5,3.5,0,0,1,.327,1.618q.013,8.692.017,17.385C118.006,143.2,117.984,143.345,117.968,143.56Zm-4.2-4.411c0-1.715.074-3.357-.028-4.988a2.044,2.044,0,0,0-2.082-1.8c-1.436.059-2.876.036-4.313,0-.52-.012-.648.187-.633.658.027.848.048,1.7,0,2.546a3.273,3.273,0,0,0,.658,2.468c.392.448.932,1.018,1.446,1.062C110.425,139.235,112.056,139.149,113.769,139.149Z" transform="translate(-102.343 -121.426)" fill="#fff"/>
    </g>
    <g id="Group_2" data-name="Group 2" transform="translate(213.612 94.064)">
      <path id="Path_4" data-name="Path 4" d="M368.681,143.549v-2.813a13.717,13.717,0,0,1-1.688,1.753,5.045,5.045,0,0,1-3.21,1.068c-1.205-.045-2.414-.01-3.709-.01v-2.84l-.138-.05a2.587,2.587,0,0,0-.383.42,5.042,5.042,0,0,1-2.878,2.2,6.845,6.845,0,0,1-2.436.262c-4.41.015-8.82,0-13.229,0a3.9,3.9,0,0,1-3.314-1.826,2.669,2.669,0,0,1-.4-1.438c-.027-5.19-.015-10.38-.016-15.571a3.285,3.285,0,0,1,2.2-3.027,9.841,9.841,0,0,1,1.343-.3c.547-.1.7.2.689.681-.015.887-.019,1.774-.02,2.661,0,2.737-.024,5.474.011,8.21.021,1.651.126,3.3.209,4.951A1.349,1.349,0,0,0,343,139.139q5.564.009,11.128-.022a1.6,1.6,0,0,0,1.253-1.009,4.077,4.077,0,0,0,.269-1.925c0-3.492.039-6.984-.032-10.474a4.155,4.155,0,0,1,1.017-2.923,3.546,3.546,0,0,1,2.774-1.43.511.511,0,0,1,.566.554c.037,1.635.068,3.271.076,4.906.021,3.85.027,7.7.04,11.551,0,.224,0,.449,0,.748,1.136,0,2.228.046,3.311-.032.267-.019.6-.4.732-.688a4.046,4.046,0,0,0,.373-1.52c.032-2.434.02-4.869-.006-7.3-.015-1.317-.136-2.634-.123-3.949a3.777,3.777,0,0,1,1.056-2.812c.861-.817,1.745-1.676,3.189-1.385.014.3.039.594.04.888q.029,7.87.053,15.741a2.017,2.017,0,0,0,.035.673c.061.163.263.38.41.386a15.216,15.216,0,0,0,2.437-.011c1.009-.121,1.5-.838,1.526-2.018.061-2.471.019-4.945.019-7.417,0-1.3.031-2.606-.012-3.907a4.368,4.368,0,0,1,1.836-3.648,2.947,2.947,0,0,1,1.882-.753.547.547,0,0,1,.628.564c.027.319.026.641.027.962q.033,8.124.059,16.25a4.306,4.306,0,0,1-2.661,3.877,7.031,7.031,0,0,1-3.28.546C370.678,143.524,369.736,143.549,368.681,143.549Z" transform="translate(-337.278 -121.313)" fill="#fff"/>
      <path id="Path_5" data-name="Path 5" d="M439.118,136.752c-.283-.015-.5-.036-.727-.036-2.516,0-5.033,0-7.549-.006a3.132,3.132,0,0,1-2.6-1.8,4.134,4.134,0,0,1-.322-1.324c-.029-2.453-.007-4.906-.009-7.359a4.63,4.63,0,0,1,1.274-3.349,7.782,7.782,0,0,1,1.981-1.2c1.106-.582,2.323-.354,3.493-.372,2.724-.041,5.449-.009,8.174-.015.464,0,.772.036.769.663-.029,5.547-.006,11.1-.04,16.643a4.369,4.369,0,0,1-1.647,3.745,6.1,6.1,0,0,1-4.26,1.144c-2.876-.017-5.752-.006-8.628-.011-.821,0-1.059-.274-.966-1.1a3.522,3.522,0,0,1,1.378-2.634,3.138,3.138,0,0,1,1.583-.605c2.117-.072,4.237-.043,6.356-.037,1.33,0,1.749-.4,1.779-1.76C439.158,137.165,439.135,137,439.118,136.752Zm.062-8.4h.01c0-.679,0-1.357,0-2.037,0-.6-.177-.78-.772-.782-1.1-.005-2.194-.007-3.291,0a2.627,2.627,0,0,0-2.972,2.7c-.09,1.22-.029,2.45-.021,3.676,0,.424.273.59.672.577.148-.005.294-.034.442-.038,1.369-.036,2.741-.036,4.108-.113,1.349-.075,1.732-1,1.818-2.174C439.216,129.565,439.18,128.959,439.18,128.355Z" transform="translate(-384.982 -121.27)" fill="#fff"/>
      <path id="Path_6" data-name="Path 6" d="M470.549,121.527v1.048q0,10.081,0,20.161c0,.72-.083.824-.818.8-1.167-.036-2.332-.112-3.5-.156-.527-.02-.637-.3-.636-.776q.024-9.457.019-18.915c0-.566-.008-1.132-.017-1.7-.005-.332.127-.573.478-.574,1.4,0,2.8.01,4.2.023A1.208,1.208,0,0,1,470.549,121.527Z" transform="translate(-404.822 -121.347)" fill="#fff"/>
    </g>
    <g id="Group_3" data-name="Group 3" transform="translate(171.442 69.585)">
      <path id="Path_7" data-name="Path 7" d="M287.144,153.438a19.085,19.085,0,0,1-3.1,9.07,20.841,20.841,0,0,1-14.388,8.828c-1.146.043-10.216.251-16.567-7.137-7.052-8.2-4.4-18.362-4.173-19.162a16.778,16.778,0,0,0,6.953,11.182,15.1,15.1,0,0,0,6.891,2.482,13.863,13.863,0,0,0,14.171,5.783A13.418,13.418,0,0,0,287.144,153.438Z" transform="translate(-248.24 -109.301)" fill="#fff"/>
      <path id="Path_8" data-name="Path 8" d="M303.278,141.678a13.418,13.418,0,0,1-10.216,11.045,13.863,13.863,0,0,1-14.171-5.783c.568.057,1.118.085,1.653.09a18.833,18.833,0,0,0,2.955-.227,17.812,17.812,0,0,0,4.1-1.132,15.75,15.75,0,0,0,7.436-22.975,16.715,16.715,0,0,1,5.323,15.175,9.916,9.916,0,0,0,1.269-3.206,9.762,9.762,0,0,0,.118-3.145A22.934,22.934,0,0,1,303.278,141.678Z" transform="translate(-264.375 -97.542)" fill="#fff"/>
      <path id="Path_9" data-name="Path 9" d="M292.145,136.7a7.474,7.474,0,0,1-2.558,5.584c-.256.232-.535.488-.824.763-2,1.89-3,2.832-3.509,4a5.618,5.618,0,0,0-.436,2.283,8.925,8.925,0,0,0,.7,3.282,7.736,7.736,0,0,1-3.656-3.055l-.071-.114a7.717,7.717,0,0,1-1.08-4.163,6.915,6.915,0,0,1,.725-3.457,9.534,9.534,0,0,1,2.505-2.837c.355-.308.691-.583,1-.819a4.275,4.275,0,0,0,1.686-3.126l0-.033a6.443,6.443,0,0,0-.085-1.549,3.9,3.9,0,0,1,.583.805,4.01,4.01,0,0,1,.412,1.16,10.448,10.448,0,0,0,.123-8.16,28.027,28.027,0,0,1,2.861,4.514,11.193,11.193,0,0,1,1.6,4.528C292.136,136.435,292.14,136.568,292.145,136.7Z" transform="translate(-265.33 -99.945)" fill="#fff"/>
      <path id="Path_10" data-name="Path 10" d="M267.078,117.9a15.436,15.436,0,0,1,.442-15.405,14.134,14.134,0,0,1,5.077-5.026,10.513,10.513,0,0,0,2.916-2.434,13.52,13.52,0,0,0,3-7.559,12.751,12.751,0,0,0-3.2-9.939,14.944,14.944,0,0,1-.387,4.528,14.2,14.2,0,0,0-6.405-12.479,12.917,12.917,0,0,1,.055,12.258,7.626,7.626,0,0,0-2.154-2.485,13.221,13.221,0,0,1,.332,3.423l0,.049a7.607,7.607,0,0,1-2.549,5.323,23.8,23.8,0,0,0-7,11.3,15.678,15.678,0,0,0,1.822,12.313A15.293,15.293,0,0,0,267.078,117.9Z" transform="translate(-252.675 -69.585)" fill="#fff"/>
    </g>
    <g id="Group_4" data-name="Group 4" transform="translate(213.744 121.889)">
      <path id="Path_11" data-name="Path 11" d="M340.67,183.908h.447v.54H340.6a1.077,1.077,0,0,1-1-.507,1.126,1.126,0,0,1-.805.307,1.15,1.15,0,0,1-.947-.44,1.442,1.442,0,0,1-.291-.914,1.4,1.4,0,0,1,.4-1.04,1.121,1.121,0,0,1,.826-.34,1.107,1.107,0,0,1,.643.187v-.287l.589-.307v2.134A.585.585,0,0,0,340.67,183.908Zm-1.245-1.587a.8.8,0,0,0-.616-.273.6.6,0,0,0-.487.237,1.1,1.1,0,0,0,0,1.237.6.6,0,0,0,.494.233.761.761,0,0,0,.622-.306c-.009-.08-.013-.143-.013-.187Zm-.873-1.64a.33.33,0,1,1,0-.66.33.33,0,0,1,0,.66Zm.86,0a.33.33,0,1,1,0-.66.33.33,0,0,1,0,.66Z" transform="translate(-337.557 -180.021)" fill="#fff"/>
      <path id="Path_12" data-name="Path 12" d="M346.569,185.613h.447v.54H346.5a1.288,1.288,0,0,0-1.773,0h-.514v-.54h.447a.588.588,0,0,0,.663-.667v-1.38l.582-.306v1.687A.588.588,0,0,0,346.569,185.613Zm-1.617,1.207a.33.33,0,1,1-.331.333A.294.294,0,0,1,344.951,186.82Zm.86,0a.33.33,0,1,1-.332.333A.294.294,0,0,1,345.811,186.82Z" transform="translate(-341.061 -181.726)" fill="#fff"/>
      <path id="Path_13" data-name="Path 13" d="M349.271,184.589v-.54h.359a.632.632,0,0,0,.7-.727V180.6l.589-.307v3.04a1.17,1.17,0,0,1-1.245,1.26Z" transform="translate(-343.723 -180.162)" fill="#fff"/>
      <path id="Path_14" data-name="Path 14" d="M356.9,185.843a1.744,1.744,0,0,1-.629.1,1.132,1.132,0,0,1-.947-.447,1.745,1.745,0,0,1,.095-2.06,1.2,1.2,0,0,1,.906-.36,1.121,1.121,0,0,1,.887.353,1.192,1.192,0,0,1,.278.82V185.7a1.707,1.707,0,0,1-.4,1.194,1.3,1.3,0,0,1-1.008.413,1.689,1.689,0,0,1-.792-.194v-.507a1.529,1.529,0,0,0,.71.187.834.834,0,0,0,.636-.25A1.079,1.079,0,0,0,356.9,185.843Zm0-1.567q0-.666-.575-.666a.635.635,0,0,0-.531.247,1.064,1.064,0,0,0-.193.673,1.1,1.1,0,0,0,.186.67.6.6,0,0,0,.5.25.677.677,0,0,0,.609-.247Z" transform="translate(-346.754 -181.629)" fill="#fff"/>
      <path id="Path_15" data-name="Path 15" d="M364.027,185.613h.447v.54h-.514a1.254,1.254,0,0,1-.6-.133,1.614,1.614,0,0,1-.467,1.053,1.291,1.291,0,0,1-.934.36,1.693,1.693,0,0,1-.792-.2v-.5a1.444,1.444,0,0,0,.69.187.841.841,0,0,0,.677-.287,1.188,1.188,0,0,0,.243-.794v-2.273l.582-.306v.006l.007-.006v1.82A.569.569,0,0,0,364.027,185.613Z" transform="translate(-349.988 -181.726)" fill="#fff"/>
      <path id="Path_16" data-name="Path 16" d="M369.642,184.035h.447v.54h-.514a1.288,1.288,0,0,0-1.773,0h-.514v-.54h.447a.588.588,0,0,0,.663-.667v-1.38l.582-.306v1.687A.588.588,0,0,0,369.642,184.035Zm-1.6-3.114a.33.33,0,1,1,0-.66.33.33,0,0,1,0,.66Zm.866,0a.33.33,0,1,1,0-.66.33.33,0,0,1,0,.66Z" transform="translate(-353.207 -180.147)" fill="#fff"/>
      <path id="Path_17" data-name="Path 17" d="M374.7,185.613h.447v.54h-.514a1.288,1.288,0,0,0-1.773,0h-.514v-.54h.447a.587.587,0,0,0,.663-.667v-1.38l.583-.306v1.687A.587.587,0,0,0,374.7,185.613Zm-.994,1.207a.288.288,0,0,1,.324.327.291.291,0,0,1-.324.333.294.294,0,0,1-.332-.333A.291.291,0,0,1,373.705,186.82Z" transform="translate(-355.869 -181.726)" fill="#fff"/>
      <path id="Path_18" data-name="Path 18" d="M377.4,184.589v-.54h.359a.633.633,0,0,0,.7-.727V180.6l.589-.307v3.04a1.17,1.17,0,0,1-1.245,1.26Z" transform="translate(-358.531 -180.162)" fill="#fff"/>
      <path id="Path_19" data-name="Path 19" d="M383.589,184.589V180.6l.582-.307v4.3Z" transform="translate(-361.788 -180.162)" fill="#fff"/>
      <path id="Path_20" data-name="Path 20" d="M392.685,185.19a1.075,1.075,0,0,1-.859-.36,1.21,1.21,0,0,1-.27-.82V183.2l.582-.307v1.06q0,.693.656.693h2.246q.656,0,.657-.693V182.6l.582-.306v1.713a1.146,1.146,0,0,1-.358.9,1.194,1.194,0,0,1-.819.28Zm.684-3.1a.294.294,0,0,1-.332-.333.291.291,0,0,1,.332-.326.287.287,0,0,1,.324.326A.291.291,0,0,1,393.369,182.09Zm.859,0a.294.294,0,0,1-.332-.333.328.328,0,1,1,.332.333Z" transform="translate(-365.981 -180.763)" fill="#fff"/>
      <path id="Path_21" data-name="Path 21" d="M405.118,184.589a1.126,1.126,0,0,1-.907-.373,1.217,1.217,0,0,1-.271-.814V180.6l.582-.307v3.094a.588.588,0,0,0,.663.667h.447v.54Z" transform="translate(-372.501 -180.162)" fill="#fff"/>
      <path id="Path_22" data-name="Path 22" d="M407.765,184.25a1.156,1.156,0,0,1,.352-.9,1.189,1.189,0,0,1,.812-.273,1.155,1.155,0,0,1,.988.467,1.656,1.656,0,0,1,.3,1.026,1.589,1.589,0,0,1-.379,1.127,1.122,1.122,0,0,1-.866.36,1.222,1.222,0,0,1-.927-.333,1.161,1.161,0,0,1-.873.333h-.514v-.54h.447a.588.588,0,0,0,.663-.667Zm.583.647a.546.546,0,0,0,.615.62.575.575,0,0,0,.5-.253,1.206,1.206,0,0,0,.18-.707,1.135,1.135,0,0,0-.189-.7.618.618,0,0,0-.521-.25q-.582,0-.582.666Z" transform="translate(-373.929 -181.629)" fill="#fff"/>
      <path id="Path_23" data-name="Path 23" d="M415.514,186.079l.284-.54H417a.475.475,0,0,0,.383-.134.726.726,0,0,0,.111-.46,1.433,1.433,0,0,0-.833-1.334l.3-.493a1.992,1.992,0,0,1,1.11,1.693.822.822,0,0,0,.179.557.716.716,0,0,0,.531.17h.4v.54h-.447a1.124,1.124,0,0,1-.88-.353.819.819,0,0,1-.751.353Z" transform="translate(-378.592 -181.652)" fill="#fff"/>
      <path id="Path_24" data-name="Path 24" d="M426.812,183.983h.44v.54h-.447a2.569,2.569,0,0,1-.879-.124,1.573,1.573,0,0,1-.616-.436,3.542,3.542,0,0,1-1.989.56H422.4v-.54h.927a2.766,2.766,0,0,0,2.172-.893,1.612,1.612,0,0,0-1.367-1.021,1.661,1.661,0,0,0-1.13.574v-.533a1.7,1.7,0,0,1,1.2-.567,1.652,1.652,0,0,1,1.008.37,3.231,3.231,0,0,1,.859,1.057v.293a3.1,3.1,0,0,1-.4.421A1.777,1.777,0,0,0,426.812,183.983Zm-2.362-3.16a.33.33,0,1,1,0-.66.33.33,0,0,1,0,.66Z" transform="translate(-382.217 -180.095)" fill="#fff"/>
      <path id="Path_25" data-name="Path 25" d="M434.094,184.05h.447v.54h-.514a1.127,1.127,0,0,1-.9-.367,1.208,1.208,0,0,1-.934.367h-.406v-.54h.359a.632.632,0,0,0,.7-.727V180.6l.589-.307v3.04a.812.812,0,0,0,.152.554A.657.657,0,0,0,434.094,184.05Z" transform="translate(-387.158 -180.162)" fill="#fff"/>
      <path id="Path_26" data-name="Path 26" d="M436.744,184.589v-.54h.359a.632.632,0,0,0,.7-.727V180.6l.589-.307v3.04a1.169,1.169,0,0,1-1.245,1.26Z" transform="translate(-389.768 -180.162)" fill="#fff"/>
      <path id="Path_27" data-name="Path 27" d="M454.044,183.566l.589-.306v1.706a1.1,1.1,0,0,1-1.178,1.187H453a1.121,1.121,0,0,1-.879-.347,1.143,1.143,0,0,1-.887.347h-.447a1.252,1.252,0,0,1-.609-.14,1.467,1.467,0,0,1-.6,1.06,1.887,1.887,0,0,1-1.157.347,1.646,1.646,0,0,1-1.367-.613,1.756,1.756,0,0,1-.372-1.12,1.617,1.617,0,0,1,.284-.96l.562-.119a1.847,1.847,0,0,0-.3,1.02,1.263,1.263,0,0,0,.351.92,1.144,1.144,0,0,0,.846.333,1.214,1.214,0,0,0,.92-.34,1.044,1.044,0,0,0,.27-.747v-1.78l.582-.307v1.24a.585.585,0,0,0,.656.667h.318a.585.585,0,0,0,.656-.667v-1.16l.589-.3v1.46a.585.585,0,0,0,.656.667h.318a.585.585,0,0,0,.656-.667Z" transform="translate(-394.999 -181.726)" fill="#fff"/>
      <path id="Path_28" data-name="Path 28" d="M467.609,185.843a1.745,1.745,0,0,1-.63.1,1.133,1.133,0,0,1-.947-.447,1.747,1.747,0,0,1,.1-2.06,1.2,1.2,0,0,1,.907-.36,1.121,1.121,0,0,1,.887.353,1.194,1.194,0,0,1,.278.82V185.7a1.71,1.71,0,0,1-.4,1.194,1.3,1.3,0,0,1-1.008.413,1.689,1.689,0,0,1-.792-.194v-.507a1.529,1.529,0,0,0,.71.187.834.834,0,0,0,.636-.25A1.082,1.082,0,0,0,467.609,185.843Zm0-1.567q0-.666-.575-.666a.635.635,0,0,0-.531.247,1.064,1.064,0,0,0-.193.673,1.1,1.1,0,0,0,.186.67.6.6,0,0,0,.5.25.677.677,0,0,0,.609-.247Z" transform="translate(-405.031 -181.629)" fill="#fff"/>
      <path id="Path_29" data-name="Path 29" d="M473.484,184.589V180.6l.582-.307v4.3Z" transform="translate(-409.107 -180.162)" fill="#fff"/>
    </g>
    <g id="Group_5" data-name="Group 5" transform="translate(103.505 122.523)">
      <path id="Path_30" data-name="Path 30" d="M106.051,181.5h.481l1.254,3.464h-.52L107,184.18h-1.418l-.268.783h-.52Zm.241.613-.564,1.648h1.128Z" transform="translate(-104.797 -181.432)" fill="#fff"/>
      <path id="Path_31" data-name="Path 31" d="M113.065,181.5h.547l.733,2.687.712-2.687h.536l-1.013,3.464h-.443q-.389-1.183-.8-2.731-.411,1.549-.8,2.731H112.1l-1.013-3.464h.536l.712,2.687Z" transform="translate(-108.106 -181.432)" fill="#fff"/>
      <path id="Path_32" data-name="Path 32" d="M123.324,181.978a1.659,1.659,0,0,0-.75-.186.724.724,0,0,0-.438.123.373.373,0,0,0-.17.314q0,.345.454.515a2.823,2.823,0,0,1,.963.528.969.969,0,0,1-.093,1.454,1.234,1.234,0,0,1-.761.23,2.109,2.109,0,0,1-1.128-.372l.219-.312a1.6,1.6,0,0,0,.853.224q.668,0,.668-.564,0-.438-.564-.629a2.439,2.439,0,0,1-.857-.449.786.786,0,0,1-.265-.6.8.8,0,0,1,.323-.667,1.23,1.23,0,0,1,.777-.23,1.7,1.7,0,0,1,.985.306Z" transform="translate(-113.538 -181.359)" fill="#fff"/>
      <path id="Path_33" data-name="Path 33" d="M130.729,184.889v-3.459a6.038,6.038,0,0,1,.887-.072q1.259,0,1.258,1.062a1.031,1.031,0,0,1-.383.87,1.271,1.271,0,0,1-.8.241,2.628,2.628,0,0,1-.454-.038v1.4Zm.509-3.087v1.281a2.626,2.626,0,0,0,.454.038q.646,0,.646-.7,0-.656-.7-.657A1.727,1.727,0,0,0,131.238,181.8Z" transform="translate(-118.447 -181.359)" fill="#fff"/>
      <path id="Path_34" data-name="Path 34" d="M136.819,181.5h2.112v.422h-1.6v1.034h1.346v.422h-1.346v1.166H139v.421h-2.184Z" transform="translate(-121.653 -181.432)" fill="#fff"/>
      <path id="Path_35" data-name="Path 35" d="M143.313,181.92h-1.04V181.5h2.671v.422h-1.122v3.043h-.509Z" transform="translate(-124.524 -181.432)" fill="#fff"/>
      <path id="Path_36" data-name="Path 36" d="M149.275,184.889v-3.459a6.048,6.048,0,0,1,.887-.072q1.259,0,1.259,1.062a1,1,0,0,1-.569.974l.69,1.494h-.515l-.624-1.368a1.518,1.518,0,0,1-.208.01,2.382,2.382,0,0,1-.411-.038v1.4Zm.509-3.087v1.281a2.383,2.383,0,0,0,.411.038.614.614,0,0,0,.69-.7q0-.656-.7-.657A1.727,1.727,0,0,0,149.784,181.8Z" transform="translate(-128.21 -181.359)" fill="#fff"/>
      <path id="Path_37" data-name="Path 37" d="M156.477,184.955a1.355,1.355,0,0,1-1.188-.607,2.033,2.033,0,0,1-.328-1.172,1.988,1.988,0,0,1,.432-1.324,1.437,1.437,0,0,1,2.271.137,2.094,2.094,0,0,1,.328,1.187,1.915,1.915,0,0,1-.432,1.3A1.36,1.36,0,0,1,156.477,184.955Zm0-.438a.841.841,0,0,0,.766-.421,1.748,1.748,0,0,0,.213-.92,1.69,1.69,0,0,0-.279-1.034.827.827,0,0,0-.7-.345.84.84,0,0,0-.766.444,1.824,1.824,0,0,0-.213.935,1.606,1.606,0,0,0,.279,1.013A.841.841,0,0,0,156.477,184.517Z" transform="translate(-131.203 -181.359)" fill="#fff"/>
      <path id="Path_38" data-name="Path 38" d="M163.016,184.962V181.5h.509v3.043h1.341v.421Z" transform="translate(-135.443 -181.432)" fill="#fff"/>
      <path id="Path_39" data-name="Path 39" d="M168.424,181.5h2.112v.422h-1.6v1.034h1.346v.422h-1.346v1.166h1.675v.421h-2.184Z" transform="translate(-138.289 -181.432)" fill="#fff"/>
      <path id="Path_40" data-name="Path 40" d="M177.169,183.512q0,1.516-1.27,1.516t-1.27-1.516V181.5h.514v2.129q0,.963.755.963t.755-.963V181.5h.514Z" transform="translate(-141.556 -181.432)" fill="#fff"/>
      <path id="Path_41" data-name="Path 41" d="M182.608,182.111v2.852h-.5V181.5h.646a17.622,17.622,0,0,1,.887,2.4q.1.339.159.52l.109-.35a22.315,22.315,0,0,1,.942-2.567h.651v3.464h-.509V182.1q-.213.761-.985,2.863h-.4q-.246-.575-.561-1.486T182.608,182.111Z" transform="translate(-145.491 -181.432)" fill="#fff"/>
      <path id="Path_42" data-name="Path 42" d="M195.582,181.978a1.661,1.661,0,0,0-.75-.186.726.726,0,0,0-.438.123.374.374,0,0,0-.169.314q0,.345.454.515a2.823,2.823,0,0,1,.963.528.969.969,0,0,1-.093,1.454,1.234,1.234,0,0,1-.761.23,2.108,2.108,0,0,1-1.128-.372l.219-.312a1.6,1.6,0,0,0,.853.224q.668,0,.668-.564,0-.438-.564-.629a2.435,2.435,0,0,1-.857-.449.784.784,0,0,1-.265-.6.8.8,0,0,1,.323-.667,1.231,1.231,0,0,1,.778-.23,1.7,1.7,0,0,1,.985.306Z" transform="translate(-151.574 -181.359)" fill="#fff"/>
      <path id="Path_43" data-name="Path 43" d="M200.167,181.5h2.113v.422h-1.6v1.034h1.346v.422h-1.346v1.166h1.675v.421h-2.184Z" transform="translate(-154.998 -181.432)" fill="#fff"/>
      <path id="Path_44" data-name="Path 44" d="M206.373,184.889v-3.459a6.038,6.038,0,0,1,.887-.072q1.259,0,1.258,1.062a1,1,0,0,1-.569.974l.69,1.494h-.515l-.624-1.368a1.518,1.518,0,0,1-.208.01,2.381,2.381,0,0,1-.411-.038v1.4Zm.509-3.087v1.281a2.383,2.383,0,0,0,.411.038.614.614,0,0,0,.69-.7q0-.656-.7-.657A1.727,1.727,0,0,0,206.882,181.8Z" transform="translate(-158.265 -181.359)" fill="#fff"/>
      <path id="Path_45" data-name="Path 45" d="M212.19,181.5l.919,2.687.914-2.687h.537l-1.254,3.464h-.4l-1.254-3.464Z" transform="translate(-161.044 -181.432)" fill="#fff"/>
      <path id="Path_46" data-name="Path 46" d="M219.541,181.5v3.464h-.5V181.5Z" transform="translate(-164.932 -181.432)" fill="#fff"/>
      <path id="Path_47" data-name="Path 47" d="M224.314,184.555a1.5,1.5,0,0,1-1,.4,1.411,1.411,0,0,1-1.22-.607,1.954,1.954,0,0,1-.34-1.155,2.065,2.065,0,0,1,.422-1.308,1.291,1.291,0,0,1,1.056-.526,1.626,1.626,0,0,1,1.04.377l-.2.307a1.333,1.333,0,0,0-.739-.247.9.9,0,0,0-.782.411,1.7,1.7,0,0,0-.257.985,1.422,1.422,0,0,0,.323.974.968.968,0,0,0,.766.34,1.311,1.311,0,0,0,.734-.257Z" transform="translate(-166.361 -181.359)" fill="#fff"/>
      <path id="Path_48" data-name="Path 48" d="M228.722,181.5h2.112v.422h-1.6v1.034h1.346v.422h-1.346v1.166h1.675v.421h-2.184Z" transform="translate(-170.029 -181.432)" fill="#fff"/>
      <path id="Path_49" data-name="Path 49" d="M236.4,181.978a1.662,1.662,0,0,0-.75-.186.725.725,0,0,0-.438.123.374.374,0,0,0-.169.314q0,.345.454.515a2.821,2.821,0,0,1,.963.528.969.969,0,0,1-.093,1.454,1.235,1.235,0,0,1-.761.23,2.108,2.108,0,0,1-1.127-.372l.219-.312a1.607,1.607,0,0,0,.854.224q.668,0,.668-.564,0-.438-.564-.629a2.437,2.437,0,0,1-.856-.449.784.784,0,0,1-.265-.6.8.8,0,0,1,.323-.667,1.23,1.23,0,0,1,.778-.23,1.7,1.7,0,0,1,.985.306Z" transform="translate(-173.058 -181.359)" fill="#fff"/>
    </g>
  </g>
</svg>
