<svg xmlns="http://www.w3.org/2000/svg" xmlns:xlink="http://www.w3.org/1999/xlink" width="275" height="339" viewBox="0 0 275 339"><defs><filter id="a" x="-37.5" y="-17.5" width="350" height="414" filterUnits="userSpaceOnUse"><feOffset dy="20" input="SourceAlpha"/><feGaussianBlur stdDeviation="12.5" result="b"/><feFlood flood-opacity="0.051"/><feComposite operator="in" in2="b"/><feComposite in="SourceGraphic"/></filter><clipPath id="c"><g transform="matrix(1, 0, 0, 1, 0, 0)" filter="url(#a)"><rect width="275" height="339" rx="10" transform="translate(1111 599)" fill="#fff"/></g></clipPath></defs><g transform="translate(-1111 -599)" clip-path="url(#c)"><g transform="translate(1102.104 523.893)"><path d="M374.908,172.392a62.139,62.139,0,0,1-10.1,29.53c-16.145,24.442-42.869,28.251-46.848,28.744-3.732.139-33.262.817-53.941-23.239-22.961-26.693-14.31-59.786-13.586-62.392.524,3.454,3.917,23.856,22.638,36.408a49.152,49.152,0,0,0,22.437,8.08c10.255,14.665,28.713,22.838,46.138,18.829A43.687,43.687,0,0,0,374.908,172.392Z" transform="translate(-248.24 -28.686)" fill="#efefef"/><path d="M358.293,184.5a43.687,43.687,0,0,1-33.262,35.961c-17.425,4.009-35.884-4.164-46.138-18.829,1.85.185,3.639.278,5.382.293a61.324,61.324,0,0,0,9.622-.74,58,58,0,0,0,13.354-3.686c4.333-1.881,23.362-10.825,29.916-32.877,6.415-21.558-3.994-39.153-5.706-41.929A54.421,54.421,0,0,1,348.793,172.1a32.285,32.285,0,0,0,4.133-10.44,31.787,31.787,0,0,0,.386-10.239A74.671,74.671,0,0,1,358.293,184.5Z" transform="translate(-231.625 -40.796)" fill="#efefef"/><path d="M317.95,157.979a24.337,24.337,0,0,1-8.327,18.181c-.833.756-1.743,1.588-2.683,2.483-6.508,6.153-9.761,9.221-11.427,13.03a18.294,18.294,0,0,0-1.419,7.433,29.059,29.059,0,0,0,2.282,10.687,25.188,25.188,0,0,1-11.9-9.946l-.231-.37a25.126,25.126,0,0,1-3.516-13.555,22.516,22.516,0,0,1,2.359-11.257c1.958-3.809,4.657-6.168,8.157-9.237,1.157-1,2.251-1.9,3.269-2.668A13.92,13.92,0,0,0,300,152.582l.015-.108a20.978,20.978,0,0,0-.278-5.043,12.7,12.7,0,0,1,1.9,2.621,13.058,13.058,0,0,1,1.342,3.778,34.019,34.019,0,0,0,.4-26.57,91.255,91.255,0,0,1,9.314,14.7c3.146,6.245,4.9,9.808,5.212,14.742C317.919,157.131,317.934,157.562,317.95,157.979Z" transform="translate(-230.642 -38.321)" fill="#efefef"/><path d="M290.57,226.892a50.257,50.257,0,0,1,1.439-50.159,46.019,46.019,0,0,1,16.531-16.363,34.23,34.23,0,0,0,9.493-7.926,44.02,44.02,0,0,0,9.752-24.611,41.517,41.517,0,0,0-10.427-32.36,48.657,48.657,0,0,1-1.258,14.742,46.248,46.248,0,0,0-20.855-40.63,42.058,42.058,0,0,1,.18,39.912,24.827,24.827,0,0,0-7.012-8.091,43.046,43.046,0,0,1,1.079,11.146l-.006.159a24.768,24.768,0,0,1-8.3,17.333,77.477,77.477,0,0,0-22.795,36.8c-.84,3.064-5.716,22.093,5.932,40.09A49.793,49.793,0,0,0,290.57,226.892Z" transform="translate(-243.674 -69.585)" fill="#efefef"/></g></g></svg>