<svg xmlns="http://www.w3.org/2000/svg" width="44.322" height="63" viewBox="0 0 44.322 63"><g transform="translate(0)"><path d="M-260.19,538.846h-34.7c-.155-.045-.308-.1-.466-.135a5.542,5.542,0,0,1-4.321-5.728,5.612,5.612,0,0,1,1.4-3.375,6.616,6.616,0,0,1-1.422-4.775q.042-15.528.005-31.056a2.657,2.657,0,0,1,.708-1.892q3.533-3.935,7.028-7.9a2.219,2.219,0,0,1,1.8-.755q8.917.018,17.834,0a2.424,2.424,0,0,1,1.9.817q7.11,7.58,14.245,15.137a2.768,2.768,0,0,1,.8,2.038q-.026,11.777,0,23.554a6.646,6.646,0,0,1-1.412,4.826c.133.184.24.331.346.478a5.531,5.531,0,0,1-2.634,8.447C-259.441,538.65-259.819,538.738-260.19,538.846ZM-266.278,507a3.5,3.5,0,0,0,3.16-2.169,3.478,3.478,0,0,0-.668-4.043q-4.222-4.548-8.51-9.036a3.643,3.643,0,0,0-5.192-.113,3.627,3.627,0,0,0-.171,5.146c2.837,3.067,5.716,6.1,8.59,9.129A3.634,3.634,0,0,0-266.278,507Z" transform="translate(299.7 -475.846)" fill="#ee7a00"/><path d="M-239.963,442.014H-254.7c0-.712-.054-1.406.013-2.088a1.774,1.774,0,0,1,1.77-1.571q5.592-.024,11.183,0a1.781,1.781,0,0,1,1.762,1.651C-239.923,440.655-239.963,441.31-239.963,442.014Z" transform="translate(262.114 -438.343)" fill="#222"/></g><g transform="translate(17.416 34.38)"><path d="M257.712,147.082a4.646,4.646,0,0,1-.755,2.208,5.074,5.074,0,0,1-3.5,2.149,5.236,5.236,0,0,1-4.034-1.738,5.318,5.318,0,0,1-1.016-4.666,4.085,4.085,0,0,0,1.693,2.723,3.675,3.675,0,0,0,1.678.6,3.375,3.375,0,0,0,3.45,1.408A3.267,3.267,0,0,0,257.712,147.082Z" transform="translate(-248.24 -136.336)" fill="#fff"/><path d="M284.829,127.318a3.267,3.267,0,0,1-2.487,2.689,3.375,3.375,0,0,1-3.45-1.408c.138.014.272.021.4.022a4.583,4.583,0,0,0,.72-.055,4.334,4.334,0,0,0,1-.276,3.835,3.835,0,0,0,1.81-5.594,4.069,4.069,0,0,1,1.3,3.695,2.412,2.412,0,0,0,.309-.781,2.378,2.378,0,0,0,.029-.766A5.585,5.585,0,0,1,284.829,127.318Z" transform="translate(-275.357 -116.572)" fill="#fff"/><path d="M283.492,129.558a1.82,1.82,0,0,1-.623,1.36c-.062.057-.13.119-.2.186a3.442,3.442,0,0,0-.854.974,1.368,1.368,0,0,0-.106.556,2.173,2.173,0,0,0,.171.8,1.883,1.883,0,0,1-.89-.744l-.017-.028a1.88,1.88,0,0,1-.263-1.014,1.683,1.683,0,0,1,.176-.842,2.321,2.321,0,0,1,.61-.691c.086-.075.168-.142.244-.2a1.041,1.041,0,0,0,.411-.761v-.008a1.569,1.569,0,0,0-.021-.377.949.949,0,0,1,.142.2.978.978,0,0,1,.1.283,2.544,2.544,0,0,0,.03-1.987,6.824,6.824,0,0,1,.7,1.1,2.725,2.725,0,0,1,.39,1.1C283.489,129.495,283.49,129.527,283.492,129.558Z" transform="translate(-276.963 -120.61)" fill="#fff"/><path d="M259.2,81.348a3.758,3.758,0,0,1,.108-3.751,3.442,3.442,0,0,1,1.236-1.224,2.56,2.56,0,0,0,.71-.593,3.291,3.291,0,0,0,.729-1.84,3.1,3.1,0,0,0-.78-2.42,3.637,3.637,0,0,1-.094,1.1,3.458,3.458,0,0,0-1.559-3.038,3.145,3.145,0,0,1,.013,2.985,1.857,1.857,0,0,0-.524-.605,3.223,3.223,0,0,1,.081.833v.012a1.852,1.852,0,0,1-.621,1.3,5.794,5.794,0,0,0-1.7,2.752,3.817,3.817,0,0,0,.444,3A3.724,3.724,0,0,0,259.2,81.348Z" transform="translate(-255.693 -69.585)" fill="#fff"/></g></svg>