<svg xmlns="http://www.w3.org/2000/svg" width="69.432" height="74.058" viewBox="0 0 69.432 74.058"><g transform="translate(588.361 -364.767)"><g transform="translate(-588.361 364.767)"><path d="M-541.21,485.342h-40.2a1.17,1.17,0,0,0-.255-.116,7.893,7.893,0,0,1-6.68-7.893q-.023-23.462,0-46.924a7.886,7.886,0,0,1,7.993-7.975c9.086-.021,18.172,0,27.258-.008a5.616,5.616,0,0,1,4.118,1.638q6.535,6.5,13.039,13.035a5.7,5.7,0,0,1,1.687,4.245c-.016,1.735,0,3.471,0,5.206,0,10.291.014,20.582-.011,30.873a7.854,7.854,0,0,1-5.561,7.548C-540.283,485.112-540.749,485.219-541.21,485.342Zm-33.752-11.714c.043,1.263.44,1.967,1.309,2.33a2.083,2.083,0,0,0,2.4-.452c1.089-1.058,2.132-2.164,3.243-3.2a1.822,1.822,0,0,1,1.119-.459c3.712-.034,7.424-.009,11.135-.032a1.577,1.577,0,0,1,1.258.539c.932.976,1.9,1.919,2.855,2.871,1.11,1.107,2.458,1.216,3.377.278s.8-2.238-.284-3.327c-.986-.991-2-1.959-2.949-2.981a1.722,1.722,0,0,1-.457-1.048q-.049-5.676,0-11.352a1.507,1.507,0,0,1,.385-.936c1.01-1.067,2.071-2.087,3.106-3.131a2.22,2.22,0,0,0,.172-3.274,2.225,2.225,0,0,0-3.221.187c-1.029,1.016-2.027,2.064-3.082,3.053a1.722,1.722,0,0,1-1.051.456q-5.676.048-11.352,0a1.509,1.509,0,0,1-.934-.39c-1.068-1.01-2.088-2.07-3.133-3.1a2.226,2.226,0,0,0-3.272-.171,2.217,2.217,0,0,0,.185,3.219c1.05,1.063,2.126,2.1,3.156,3.183a1.407,1.407,0,0,1,.367.872q.036,5.712,0,11.425a1.51,1.51,0,0,1-.391.935c-1.028,1.084-2.131,2.1-3.142,3.2A6.453,6.453,0,0,0-574.962,473.628Zm29.171-33.98a1.054,1.054,0,0,0-.1-.227q-4.031-4.04-8.075-8.067a.983.983,0,0,0-.634-.238c-7.008-.01-14.015-.026-21.022.008a4.213,4.213,0,0,0-4.055,4.035,4.27,4.27,0,0,0,4.414,4.487q14.485.012,28.969,0Z" transform="translate(588.361 -411.284)" fill="#ee7a00"/><path d="M-318.193,371.723c2.055-2.064,4.169-4.234,6.351-6.334a2.522,2.522,0,0,1,1.564-.582c2.357-.062,4.717-.038,7.075-.022a2.159,2.159,0,0,1,2.232,2.236c.015.794.02,1.589,0,2.383a2.165,2.165,0,0,1-2.216,2.178.706.706,0,0,1-.144,0,4.272,4.272,0,0,0-4.29,1.756c-1.39,1.621-2.993,3.06-4.444,4.517Z" transform="translate(370.39 -364.767)" fill="#222"/><path d="M-352.41,421.957l-11.227-11.23c.544-.535,1.077-1.127,1.68-1.634a2.085,2.085,0,0,1,2.781.1q4.194,4.14,8.332,8.336a2.077,2.077,0,0,1,.027,2.837C-351.308,420.927-351.87,421.424-352.41,421.957Z" transform="translate(407.054 -400.14)" fill="#222"/><path d="M-473.815,614.2v-9.866h9.87V614.2Z" transform="translate(495.946 -558.047)" fill="#d60011"/></g></g></svg>