<svg xmlns="http://www.w3.org/2000/svg" width="76.848" height="63.042" viewBox="0 0 76.848 63.042"><g transform="translate(607.724 -812.125)"><g transform="translate(-607.724 812.125)"><path d="M-530.876,823.985c-.551,1.807-1.122,3.609-1.651,5.423q-3.754,12.87-7.49,25.746a2.342,2.342,0,0,1-2.655,2q-19.883,0-39.766,0a2.331,2.331,0,0,1-2.638-2.019q-5.247-18.87-10.49-37.741c-.066-.238-.14-.474-.227-.766h-.823c-2.876,0-5.752,0-8.629,0a2.277,2.277,0,0,1-2.479-2.242,2.268,2.268,0,0,1,2.462-2.257q5.44-.009,10.879,0a2.316,2.316,0,0,1,2.563,1.927c.6,2.139,1.193,4.281,1.79,6.421.059.212.131.419.206.656h.926q27.536,0,55.072-.019a2.833,2.833,0,0,1,2.95,1.671Zm-31.66,10.657q-7.761,0-15.522,0a2.294,2.294,0,0,0-2.3,1.356,2.248,2.248,0,0,0,2.24,3.148q10.61.011,21.22,0c3.3,0,6.6-.005,9.9,0a2.264,2.264,0,0,0,2.246-1.323,2.24,2.24,0,0,0-2.185-3.179Q-554.738,834.63-562.536,834.642Zm.065,9.006q-5.51,0-11.02,0a2.3,2.3,0,0,0-2.562,2.23,2.283,2.283,0,0,0,2.522,2.271q10.982,0,21.964,0a2.283,2.283,0,0,0,2.526-2.268,2.291,2.291,0,0,0-2.56-2.233Q-557.036,843.645-562.471,843.648Z" transform="translate(607.724 -812.125)" fill="#ee7a00"/><path d="M-469.964,1065.893a6.763,6.763,0,0,1-6.767,6.775,6.768,6.768,0,0,1-6.737-6.731,6.763,6.763,0,0,1,6.767-6.774A6.761,6.761,0,0,1-469.964,1065.893Z" transform="translate(508.384 -1009.627)" fill="#222"/><path d="M-341.946,1059.164a6.761,6.761,0,0,1,6.715,6.825,6.765,6.765,0,0,1-6.788,6.679,6.767,6.767,0,0,1-6.716-6.827A6.766,6.766,0,0,1-341.946,1059.164Z" transform="translate(400.669 -1009.627)" fill="#222"/></g></g></svg>