<svg xmlns="http://www.w3.org/2000/svg" width="54.91" height="78.051" viewBox="0 0 54.91 78.051"><g transform="translate(-623.045 -634.95)"><g transform="translate(922.745 196.607)"><g transform="translate(-299.7 438.342)"><path d="M-250.751,552.134h-42.986c-.192-.056-.382-.121-.577-.167a6.866,6.866,0,0,1-5.353-7.1,6.953,6.953,0,0,1,1.73-4.181c-1.537-1.711-1.768-3.748-1.762-5.916q.053-19.238.007-38.476a3.292,3.292,0,0,1,.877-2.344q4.377-4.875,8.707-9.792a2.748,2.748,0,0,1,2.225-.936q11.048.022,22.1,0a3,3,0,0,1,2.352,1.012q8.808,9.391,17.648,18.753a3.429,3.429,0,0,1,1,2.525q-.032,14.59,0,29.181c.008,2.188-.195,4.261-1.749,5.979.165.229.3.41.428.593a6.852,6.852,0,0,1-3.263,10.465C-249.823,551.891-250.291,552-250.751,552.134Zm-7.542-39.458a4.335,4.335,0,0,0,3.915-2.688,4.309,4.309,0,0,0-.828-5.009q-5.231-5.635-10.543-11.194a4.513,4.513,0,0,0-6.432-.141,4.493,4.493,0,0,0-.212,6.375c3.515,3.8,7.082,7.553,10.642,11.31A4.5,4.5,0,0,0-258.293,512.676Z" transform="translate(299.7 -474.083)" fill="#ee7a00"/><path d="M-236.437,442.891H-254.7c0-.882-.067-1.742.017-2.587a2.2,2.2,0,0,1,2.193-1.946q6.928-.029,13.855,0a2.207,2.207,0,0,1,2.183,2.045C-236.388,441.208-236.437,442.019-236.437,442.891Z" transform="translate(263.881 -438.343)" fill="#222"/></g></g><g transform="translate(644.622 677.543)"><path d="M259.975,147.57a5.757,5.757,0,0,1-.936,2.736,6.287,6.287,0,0,1-4.34,2.663,6.487,6.487,0,0,1-5-2.153,6.589,6.589,0,0,1-1.259-5.78,5.061,5.061,0,0,0,2.1,3.373,4.554,4.554,0,0,0,2.079.749,4.182,4.182,0,0,0,4.274,1.744A4.047,4.047,0,0,0,259.975,147.57Z" transform="translate(-248.24 -134.257)" fill="#fff"/><path d="M286.248,128.422a4.047,4.047,0,0,1-3.082,3.332,4.182,4.182,0,0,1-4.274-1.744c.171.017.337.026.5.027a5.682,5.682,0,0,0,.891-.069,5.372,5.372,0,0,0,1.237-.341,4.751,4.751,0,0,0,2.243-6.93,5.042,5.042,0,0,1,1.606,4.577,2.991,2.991,0,0,0,.383-.967,2.945,2.945,0,0,0,.036-.949A6.918,6.918,0,0,1,286.248,128.422Z" transform="translate(-274.513 -115.108)" fill="#fff"/><path d="M284.157,130.107a2.255,2.255,0,0,1-.771,1.684c-.077.07-.161.147-.249.23a4.263,4.263,0,0,0-1.059,1.207,1.7,1.7,0,0,0-.131.689,2.692,2.692,0,0,0,.211.99,2.334,2.334,0,0,1-1.1-.921l-.021-.034a2.328,2.328,0,0,1-.326-1.256,2.086,2.086,0,0,1,.219-1.043,2.876,2.876,0,0,1,.756-.856c.107-.093.209-.176.3-.247a1.29,1.29,0,0,0,.509-.943v-.01a1.943,1.943,0,0,0-.026-.467,1.177,1.177,0,0,1,.176.243,1.21,1.21,0,0,1,.124.35,3.152,3.152,0,0,0,.037-2.462,8.454,8.454,0,0,1,.863,1.361,3.377,3.377,0,0,1,.483,1.366C284.154,130.028,284.155,130.068,284.157,130.107Z" transform="translate(-276.068 -119.021)" fill="#fff"/><path d="M259.806,84.158a4.656,4.656,0,0,1,.133-4.647A4.263,4.263,0,0,1,261.471,78a3.171,3.171,0,0,0,.879-.734,4.078,4.078,0,0,0,.9-2.28,3.846,3.846,0,0,0-.966-3,4.508,4.508,0,0,1-.117,1.366,4.285,4.285,0,0,0-1.932-3.764,3.9,3.9,0,0,1,.017,3.7,2.3,2.3,0,0,0-.65-.75,3.99,3.99,0,0,1,.1,1.033v.015a2.3,2.3,0,0,1-.769,1.606,7.178,7.178,0,0,0-2.112,3.41,4.729,4.729,0,0,0,.55,3.714A4.613,4.613,0,0,0,259.806,84.158Z" transform="translate(-255.461 -69.585)" fill="#fff"/></g></g></svg>