<svg xmlns="http://www.w3.org/2000/svg" width="74.418" height="74.501" viewBox="0 0 74.418 74.501"><g transform="translate(-917.891 -651)"><g transform="translate(917.891 651)"><path d="M106.749,344.27c.114-.49.216-.984.345-1.47a10.578,10.578,0,0,1,2.664-4.765c.8-.813,1.637-1.581,2.542-2.45-.873-.875-1.661-1.679-2.467-2.466a2.047,2.047,0,0,1-.733-2.018,3.444,3.444,0,0,1,.843-1.467q5.618-5.69,11.294-11.323a5.435,5.435,0,0,1,.666-.488c-.742-1.24-1.4-2.336-2.056-3.434a2.318,2.318,0,0,1,.433-3.366q4.315-4.321,8.632-8.64c1.255-1.255,2.4-1.258,3.649-.014q1.082,1.076,2.164,2.152a1.025,1.025,0,0,0,.211.1c1.066-1.077,2.147-2.18,3.241-3.272,1.255-1.253,2.4-1.25,3.648,0q4.831,4.833,9.667,9.661a3.42,3.42,0,0,1,1.019,1.95c.621,3.8,1.24,7.6,1.9,11.392a2.924,2.924,0,0,1-.9,2.814q-8.483,8.429-16.916,16.907a10.879,10.879,0,0,1-15.784.034c-1.635-1.621-3.254-3.257-4.883-4.884-.184-.184-.378-.358-.659-.623-1.046,1.134-2.128,2.177-3.05,3.346a5.889,5.889,0,0,0-1.116,3.764c.007,4.219-.034,8.437.023,12.655a2.791,2.791,0,0,1-1.62,2.931h-1.163a3.352,3.352,0,0,1-1.6-1.6Zm34.678-11.249-6.458-3.225c0,1.639.013,3.136,0,4.632a2.176,2.176,0,0,1-2.164,2.258,2.234,2.234,0,0,1-2.185-2.184c-.024-.483-.006-.969-.007-1.454,0-.441,0-.882,0-1.313l-8,8.011c.381.375.81.795,1.238,1.218a6.538,6.538,0,0,0,9.685,0q3.706-3.693,7.4-7.4C141.076,333.416,141.213,333.254,141.427,333.021Z" transform="translate(-106.749 -286.792)" fill="#ee7a00"/><path d="M316.48,250.571c-2.47-2.473-4.848-4.853-7.225-7.234-.152-.152-.295-.314-.43-.458.02-.079.017-.138.045-.165,2.767-2.672,5.234-5.667,8.4-7.91a23.816,23.816,0,0,1,13.655-4.438c1.307-.023,2.615-.016,3.922-.005a2.193,2.193,0,0,1,2.321,2.327q.02,3.126,0,6.252a2.208,2.208,0,0,1-2.322,2.333c-2.052.072-4.123.019-6.15.292a11.846,11.846,0,0,0-6.778,3.521C320.108,246.872,318.336,248.695,316.48,250.571Z" transform="translate(-269.583 -230.35)" fill="#222"/><path d="M415.694,365.144a7.933,7.933,0,0,1-7.442-10.657,52.233,52.233,0,0,1,4.854-9,15.891,15.891,0,0,1,.9-1.323,2.1,2.1,0,0,1,3.39-.016,47.954,47.954,0,0,1,5.9,10.721A7.915,7.915,0,0,1,415.694,365.144Z" transform="translate(-349.284 -321.345)" fill="#d60011"/></g><g transform="translate(945.518 673.413)"><path d="M257.216,146.976a4.41,4.41,0,0,1-.716,2.094,4.808,4.808,0,0,1-3.32,2.039,4.959,4.959,0,0,1-3.822-1.648,5.048,5.048,0,0,1-.963-4.425,3.875,3.875,0,0,0,1.6,2.582,3.481,3.481,0,0,0,1.59.573,3.2,3.2,0,0,0,3.269,1.335A3.1,3.1,0,0,0,257.216,146.976Z" transform="translate(-248.24 -136.784)" fill="#fff"/><path d="M284.518,127.08a3.1,3.1,0,0,1-2.357,2.551,3.2,3.2,0,0,1-3.269-1.335c.131.013.258.02.381.021a4.342,4.342,0,0,0,.682-.052A4.107,4.107,0,0,0,280.9,128a3.639,3.639,0,0,0,1.716-5.306,3.862,3.862,0,0,1,1.228,3.5,2.29,2.29,0,0,0,.293-.74,2.256,2.256,0,0,0,.027-.726A5.3,5.3,0,0,1,284.518,127.08Z" transform="translate(-275.543 -116.887)" fill="#fff"/><path d="M283.346,129.44a1.727,1.727,0,0,1-.59,1.29c-.059.054-.124.113-.19.176a3.263,3.263,0,0,0-.81.924,1.3,1.3,0,0,0-.1.527,2.061,2.061,0,0,0,.162.758,1.785,1.785,0,0,1-.844-.705l-.016-.026a1.783,1.783,0,0,1-.249-.961,1.6,1.6,0,0,1,.167-.8,2.2,2.2,0,0,1,.578-.655c.082-.071.16-.135.232-.189a.988.988,0,0,0,.389-.722v-.008a1.49,1.49,0,0,0-.02-.358.9.9,0,0,1,.134.186.927.927,0,0,1,.1.268,2.415,2.415,0,0,0,.028-1.884,6.472,6.472,0,0,1,.66,1.042,2.587,2.587,0,0,1,.369,1.046C283.344,129.38,283.345,129.41,283.346,129.44Z" transform="translate(-277.159 -120.953)" fill="#fff"/><path d="M259.067,80.742a3.567,3.567,0,0,1,.1-3.558,3.262,3.262,0,0,1,1.171-1.161,2.426,2.426,0,0,0,.673-.562,3.123,3.123,0,0,0,.691-1.746,2.946,2.946,0,0,0-.739-2.3,3.454,3.454,0,0,1-.089,1.046,3.281,3.281,0,0,0-1.478-2.882,2.985,2.985,0,0,1,.013,2.831,1.761,1.761,0,0,0-.5-.574,3.055,3.055,0,0,1,.076.791v.011a1.757,1.757,0,0,1-.588,1.229,5.5,5.5,0,0,0-1.615,2.61,3.623,3.623,0,0,0,.42,2.843A3.528,3.528,0,0,0,259.067,80.742Z" transform="translate(-255.744 -69.585)" fill="#fff"/></g></g></svg>